<svg width="84" height="25" viewBox="0 0 84 25" fill="none" xmlns="http://www.w3.org/2000/svg">
<path d="M61.0575 1.0216C59.7056 0.532457 57.5846 0 54.9596 0C48.2475 0 43.5041 3.29155 43.4753 8.00214C43.4201 11.4644 46.8379 13.4159 49.4209 14.5827C52.0747 15.7775 52.962 16.5215 52.9489 17.5813C52.9357 19.2143 50.8279 19.9429 48.888 19.9429C46.1921 19.9429 44.73 19.5863 42.4751 18.6691L41.6378 18.2844L40.6823 23.7262C42.3229 24.3758 45.2629 24.9465 48.2974 25C55.4479 25 60.1099 21.7365 60.1624 16.7049C60.2175 13.9458 58.3879 11.8516 54.4897 10.1243C52.1377 9.01101 50.6651 8.25181 50.6651 7.11047C50.6651 6.1016 51.9225 5.04178 54.5475 5.04178C56.8024 5.00102 58.3905 5.47998 59.6321 5.95639L60.2752 6.23408L61.2176 0.993581L61.0575 1.0216ZM78.5059 0.450933H73.2559C71.6152 0.450933 70.3972 0.876388 69.6728 2.45593L59.5822 24.6535H66.7196L68.1581 21.018L76.8652 21.0308C77.0831 21.8791 77.6974 24.651 77.6974 24.651H84L78.5059 0.450933ZM33.81 0.252216H40.6061L36.3536 24.465H29.5575L33.81 0.239478V0.252216ZM16.5296 13.5866L17.2253 16.9571L23.8822 0.450933H31.0879L20.3674 24.6128H13.1932L7.31325 4.15266C7.18988 3.79599 7.04025 3.55396 6.67012 3.34505C4.68825 2.33619 2.45963 1.5133 0 0.942627L0.081375 0.435648H11.046C12.5239 0.489148 13.7261 0.942627 14.1356 2.4814L16.5296 13.5993V13.5866ZM70.0954 16.068L72.8175 9.2887C72.7755 9.35239 73.3766 7.89514 73.7179 6.97799L74.1825 9.05941L75.7575 16.0527H70.0954V16.068Z" fill="black"/>
</svg>
