<svg width="51" height="50" viewBox="0 0 51 50" fill="none" xmlns="http://www.w3.org/2000/svg">
<g id="Facebook">
<path id="Rectangle-2" fill-rule="evenodd" clip-rule="evenodd" d="M0.4375 14.1602V7.16016C0.4375 5.22716 1.12092 3.57724 2.48775 2.21041C3.85459 0.843574 5.5045 0.160156 7.4375 0.160156H43.1275C45.0605 0.160156 46.7104 0.843574 48.0772 2.21041C49.4441 3.57724 50.1275 5.22716 50.1275 7.16016V42.8502C50.1275 44.7831 49.4441 46.4331 48.0772 47.7999C46.7104 49.1667 45.0605 49.8502 43.1275 49.8502H7.4375C5.5045 49.8502 3.85459 49.1667 2.48775 47.7999C1.12092 46.4331 0.4375 44.7831 0.4375 42.8502V14.1602Z" fill="#F5F6FA"/>
<g id="facebook-2">
<path id="facebook-3" fill-rule="evenodd" clip-rule="evenodd" d="M27.0831 38.9941V26.2251H31.2111L31.8291 21.2481H27.0831V18.0711C27.0831 16.6301 27.4681 15.6481 29.4581 15.6481H31.9961V11.2001C30.7675 11.0637 29.5322 10.9969 28.2961 11.0001C24.6371 11.0001 22.1321 13.3191 22.1321 17.5781V21.2481H17.9961V26.2251H22.1341V38.9951L27.0831 38.9941Z" fill="#AAB0B7"/>
</g>
</g>
</svg>
