<svg width="51" height="50" viewBox="0 0 51 50" fill="none" xmlns="http://www.w3.org/2000/svg">
<g id="Twitter">
<path id="Rectangle-3" fill-rule="evenodd" clip-rule="evenodd" d="M0.867188 16.1602V8.16016C0.867188 5.95102 1.64824 4.0654 3.21033 2.5033C4.77243 0.941205 6.65805 0.160156 8.86719 0.160156H42.5572C44.7663 0.160156 46.6519 0.941205 48.214 2.5033C49.7761 4.0654 50.5572 5.95102 50.5572 8.16016V41.8502C50.5572 44.0593 49.7761 45.9449 48.214 47.507C46.6519 49.0691 44.7663 49.8502 42.5572 49.8502H8.86719C6.65805 49.8502 4.77243 49.0691 3.21033 47.507C1.64824 45.9449 0.867188 44.0593 0.867188 41.8502V16.1602Z" fill="#F5F6FA"/>
<g id="twitter-2">
<g id="Mask group">
<mask id="mask0_0_5231" style="mask-type:luminance" maskUnits="userSpaceOnUse" x="11" y="11" width="29" height="28">
<rect id="Rectangle_20" x="11.9961" y="11" width="28" height="28" fill="white"/>
</mask>
<g mask="url(#mask0_0_5231)">
<g id="twitter-3">
<path id="Path_104" fill-rule="evenodd" clip-rule="evenodd" d="M39.9421 16.3301C38.8923 16.7906 37.7803 17.0938 36.6421 17.2301C37.8394 16.5106 38.736 15.3821 39.1661 14.0531C38.0346 14.7117 36.802 15.1783 35.5181 15.4341C33.9078 13.7183 31.4131 13.1595 29.2248 14.0245C27.0364 14.8896 25.598 17.003 25.5961 19.3561C25.5961 19.798 25.6458 20.2378 25.7442 20.6678C21.1285 20.4469 16.8248 18.2721 13.9091 14.6871C13.3944 15.5617 13.126 16.5593 13.1321 17.5741C13.1303 19.4943 14.0885 21.2881 15.6853 22.3542C14.7736 22.3252 13.8821 22.0786 13.0851 21.6351L13.0851 21.7061C13.0834 24.4392 15.0075 26.7945 17.6855 27.3382C16.8435 27.5654 15.9611 27.5995 15.1041 27.4381C15.8604 29.7768 18.0176 31.3777 20.4751 31.4241C18.4445 33.0176 15.9373 33.8826 13.3561 33.8801C12.9016 33.8791 12.4476 33.8528 11.9961 33.8011C14.6281 35.4845 17.6878 36.3775 20.8121 36.3741C31.3751 36.3741 37.1441 27.6291 37.1441 20.0571C37.1441 19.8131 37.1441 19.5671 37.1271 19.3221C38.2534 18.5121 39.2251 17.5065 39.9961 16.3531L39.9421 16.3301Z" fill="#AAB0B7"/>
</g>
</g>
</g>
</g>
</g>
</svg>
