<svg width="50" height="50" viewBox="0 0 50 50" fill="none" xmlns="http://www.w3.org/2000/svg">
<g id="YouTube">
<path id="Rectangle-4" fill-rule="evenodd" clip-rule="evenodd" d="M0.308594 14.1602V7.16016C0.308594 5.22716 0.992011 3.57724 2.35885 2.21041C3.72568 0.843574 5.3756 0.160156 7.30859 0.160156H42.9986C44.9316 0.160156 46.5815 0.843574 47.9483 2.21041C49.3152 3.57724 49.9986 5.22716 49.9986 7.16016V42.8502C49.9986 44.7831 49.3152 46.4331 47.9483 47.7999C46.5815 49.1667 44.9316 49.8502 42.9986 49.8502H7.30859C5.3756 49.8502 3.72568 49.1667 2.35885 47.7999C0.992011 46.4331 0.308594 44.7831 0.308594 42.8502V14.1602Z" fill="#F5F6FA"/>
<g id="youtube-2">
<path id="youtube-3" fill-rule="evenodd" clip-rule="evenodd" d="M38.4043 18.0521C38.2424 17.4655 37.9325 16.9304 37.5043 16.4981C37.0788 16.0675 36.5489 15.7546 35.9663 15.5901C33.7843 14.9991 25.0033 14.9991 25.0033 14.9991C25.0033 14.9991 16.2474 14.9841 14.0434 15.5911C13.4608 15.7556 12.9309 16.0685 12.5054 16.4991C12.0772 16.9314 11.7673 17.4665 11.6054 18.0531C11.1917 20.3107 10.9878 22.6018 10.9963 24.8971C10.9901 27.1828 11.1946 29.4648 11.6073 31.7135C11.7692 32.3002 12.0791 32.8355 12.5073 33.2681C12.9329 33.6986 13.4628 34.0115 14.0454 34.1761C16.2244 34.7681 25.0084 34.7681 25.0084 34.7681C25.0084 34.7681 33.7653 34.7681 35.9713 34.1761C36.5539 34.0115 37.0838 33.6986 37.5094 33.2681C37.9375 32.8357 38.2474 32.3006 38.4094 31.7141C38.8126 29.4641 39.0078 27.1818 38.9924 24.8961C39.0078 22.6018 38.811 20.3107 38.4044 18.0523L38.4043 18.0521ZM22.2031 29.129V20.649L29.5111 24.896L22.2031 29.129Z" fill="#AAB0B7"/>
</g>
</g>
</svg>
