<svg width="51" height="50" viewBox="0 0 51 50" fill="none" xmlns="http://www.w3.org/2000/svg">
<g id="Dribbble">
<path id="Rectangle" fill-rule="evenodd" clip-rule="evenodd" d="M0.998047 14.1602V7.16016C0.998047 5.22716 1.68146 3.57724 3.0483 2.21041C4.41513 0.843574 6.06505 0.160156 7.99805 0.160156H43.688C45.621 0.160156 47.271 0.843574 48.6378 2.21041C50.0046 3.57724 50.688 5.22716 50.688 7.16016V42.8502C50.688 44.7831 50.0046 46.4331 48.6378 47.7999C47.271 49.1667 45.621 49.8502 43.688 49.8502H7.99805C6.06505 49.8502 4.41513 49.1667 3.0483 47.7999C1.68146 46.4331 0.998047 44.7831 0.998047 42.8502V14.1602Z" fill="#F5F6FA"/>
<g id="dribbble-2">
<path id="dribbble-3" fill-rule="evenodd" clip-rule="evenodd" d="M25.998 40C18.2661 40 11.998 33.732 11.998 26C11.998 18.268 18.2661 12 25.998 12C33.73 12 39.9981 18.268 39.998 26C39.9874 33.728 33.7253 39.9897 25.9977 40L25.998 40ZM37.8054 27.916C35.3882 27.2131 32.848 27.0388 30.3574 27.405C31.3739 30.1755 32.1514 33.0279 32.6814 35.931C35.4223 34.0804 37.2775 31.1803 37.8084 27.916L37.8054 27.916ZM30.6712 37.025C30.1081 33.9293 29.2526 30.8941 28.1162 27.96L28.0392 27.983C21.2842 30.334 18.8692 35.012 18.6592 35.45C22.0755 38.1169 26.6698 38.7207 30.6592 37.027L30.6712 37.025ZM17.1139 34.015C19.367 30.3592 22.7943 27.5764 26.8349 26.122C26.9919 26.07 27.1499 26.022 27.3069 25.982C27.0069 25.3 26.6769 24.621 26.3359 23.952C22.3399 25.0953 18.2022 25.6676 14.0459 25.652L14.0459 26.016C14.043 28.9708 15.138 31.8219 17.1185 34.0156L17.1139 34.015ZM14.29 23.568C18.0223 23.5493 21.7372 23.0601 25.347 22.112C23.9943 19.7301 22.5145 17.4228 20.9139 15.1999C17.5191 16.7982 15.0685 19.894 14.292 23.565L14.29 23.568ZM23.1982 14.394C24.8349 16.6281 26.3244 18.9664 27.6573 21.394C30.1182 20.586 32.2945 19.0866 33.9262 17.075C31.006 14.4767 26.9982 13.4736 23.1982 14.39L23.1982 14.394ZM35.2551 18.457C33.4751 20.5801 31.1739 22.2042 28.5771 23.17C28.8571 23.742 29.1251 24.319 29.3701 24.904C29.4631 25.114 29.5451 25.324 29.6271 25.522C32.4075 25.2338 35.2153 25.3636 37.9571 25.907C37.9398 23.1903 36.9882 20.5622 35.2622 18.4641L35.2551 18.457Z" fill="#AAB0B7"/>
</g>
</g>
</svg>
